<?xml version="1.0" encoding="utf-8"?>
<!-- Generator: Adobe Illustrator 25.2.0, SVG Export Plug-In . SVG Version: 6.00 Build 0)  -->
<svg version="1.1" id="Layer_1" xmlns="http://www.w3.org/2000/svg" xmlns:xlink="http://www.w3.org/1999/xlink" x="0px"
	y="0px" viewBox="0 0 690.1 213.1" style="enable-background:new 0 0 690.1 213.1;" xml:space="preserve">
	<style type="text/css">
		.st0 {
			fill: url(#SVGID_1_);
		}

		.st1 {
			fill: url(#SVGID_2_);
		}

		.st2 {
			fill: url(#SVGID_3_);
		}

		.st3 {
			fill: url(#SVGID_4_);
		}

		.st4 {
			fill: url(#SVGID_5_);
		}

		.st5 {
			fill: url(#SVGID_6_);
		}

		.st6 {
			fill: url(#SVGID_7_);
		}

		.st7 {
			fill: url(#SVGID_8_);
		}

		.st8 {
			fill: url(#SVGID_9_);
		}

		.st9 {
			fill: url(#SVGID_10_);
		}

		.st10 {
			fill: url(#SVGID_11_);
		}

		.st11 {
			fill: url(#SVGID_12_);
		}

		.st12 {
			fill: url(#SVGID_13_);
		}

		.st13 {
			fill: url(#SVGID_14_);
		}

		.st14 {
			fill: url(#SVGID_15_);
		}

		.st15 {
			fill: url(#SVGID_16_);
		}

		.st16 {
			fill: url(#SVGID_17_);
		}

		.st17 {
			fill: url(#SVGID_18_);
		}

		.st18 {
			fill: url(#SVGID_19_);
		}

		.st19 {
			enable-background: new;
		}

		.st20 {
			fill: #FFFFFF;
		}
	</style>
	<g id="text">
		<g>
			<g>

				<linearGradient id="SVGID_1_" gradientUnits="userSpaceOnUse" x1="6.3403" y1="-165.0666" x2="94.5033"
					y2="-165.0666" gradientTransform="matrix(1 0 0 -1 -0.55 -28.7985)">
					<stop offset="0" style="stop-color:#FFFFFF" />
					<stop offset="1.000000e-02" style="stop-color:#FAFAFA" />
					<stop offset="0.13" style="stop-color:#C0C0C0" />
					<stop offset="0.25" style="stop-color:#8D8D8D" />
					<stop offset="0.37" style="stop-color:#626262" />
					<stop offset="0.5" style="stop-color:#3E3E3E" />
					<stop offset="0.62" style="stop-color:#232323" />
					<stop offset="0.74" style="stop-color:#0F0F0F" />
					<stop offset="0.87" style="stop-color:#040404" />
					<stop offset="1" style="stop-color:#000000" />
				</linearGradient>
				<path class="st0" d="M83.7,208.6c-0.8,0-1.6-0.1-2.4-0.3c-4.3-0.9-7.9-3.9-10.2-6.1c-3.3-3.3-5.6-7-6.6-10.7
				c-0.1-0.5-0.2-1-0.3-1.4c-1.6-9.1-6.6-16.3-10.6-20.7c-2.8-3.1-5.6-6.2-8.4-9c-5.8-5.9-13.2-9.8-20.8-10.8
				c-0.2,0-0.3-0.1-0.5-0.1c-0.2-0.1-0.5-0.1-0.7-0.1c-5.9,0.1-10.1-1.6-12.9-5.2c-2.5-3.2-3.5-7.5-4.3-11c-0.8-3,0-6.3,2-8.7
				c2.4-2.9,6.5-4.7,10.6-4.6c0.4,0,0.9,0,1.3,0.1c7.4,0.7,14.8-2,20-7.3c2.7-2.8,5.5-5.6,8-8c5.4-5.2,8.5-13,8.4-20.9
				c0-0.6,0-1.1,0.1-1.7c0.9-9.3,9.2-17.4,18.6-18.1c4.5-0.3,8.9,1.2,12.2,4.3c3.3,3.1,5.1,7.4,5,11.9C92,85,90,89.5,86.4,92.8
				c-3.5,3.3-8.1,5.2-12.8,5.5c-0.1,0-0.2,0-0.3,0h-0.1c-7.7,0.3-15,3.3-20.1,8.3c-2.9,2.8-5.7,5.8-8.4,8.7
				c-0.9,0.9-1.7,1.8-2.6,2.8c-4.7,5.1-6.9,11.6-6.1,18.1v0.2c0.7,6.4,4.1,12.8,10,19c2.7,2.8,5.4,5.8,8,8.6
				c1.2,1.4,2.5,2.8,3.8,4.2c5.4,5.8,12.1,9.4,18.8,10.1l0.3,0c4.4,0.6,8.5,2.7,11.6,5.9c3.2,3.1,5.1,7.3,5.3,11.8
				c0.1,4.1-1.5,8.2-4.4,10.5C87.9,207.8,85.8,208.6,83.7,208.6z M23.3,148.9c0.3,0,0.5,0,0.8,0.1c0.1,0,0.3,0.1,0.4,0.1
				c7.7,1,15.1,4.9,21.1,10.9c2.8,2.9,5.6,5.9,8.4,9c4,4.5,9.1,11.8,10.7,21c0.1,0.4,0.2,0.9,0.3,1.4c1,3.6,3.2,7.2,6.5,10.4
				c2.2,2.2,5.8,5.1,9.9,6c2.8,0.7,5.7,0,7.9-1.8c2.7-2.2,4.3-6.1,4.2-10.2c-0.2-4.3-2-8.4-5.1-11.4c-3-3.1-7-5.1-11.4-5.7l-0.3,0
				c-6.8-0.8-13.6-4.4-19.2-10.3c-1.3-1.4-2.6-2.8-3.8-4.2c-2.6-2.9-5.3-5.8-8-8.6c-6-6.3-9.4-12.7-10.2-19.2v-0.2
				c-0.8-6.7,1.3-13.3,6.2-18.5l2.6-2.8c2.7-2.9,5.5-5.9,8.5-8.8c5.1-5.1,12.5-8.1,20.4-8.4h0.1h0.3c4.7-0.3,9.1-2.1,12.5-5.3
				c3.5-3.2,5.5-7.6,5.6-12.3c0.1-4.3-1.7-8.5-4.9-11.5c-3.2-3-7.5-4.5-11.9-4.2c-9.1,0.7-17.3,8.6-18.1,17.7l0,0
				c-0.1,0.5-0.1,1.1-0.1,1.6c0.1,8-3.1,15.9-8.5,21.2c-2.5,2.5-5.3,5.2-8,8c-5.3,5.5-12.8,8.2-20.4,7.5c-0.4,0-0.8-0.1-1.2-0.1
				c-4-0.1-7.9,1.6-10.2,4.4c-1.9,2.3-2.6,5.4-1.9,8.3c1.6,7.1,3.6,15.8,16.3,15.8L23.3,148.9L23.3,148.9z" />

				<linearGradient id="SVGID_2_" gradientUnits="userSpaceOnUse" x1="6.3522" y1="-86.0014" x2="151.1773"
					y2="-86.0014" gradientTransform="matrix(1 0 0 -1 -0.55 -28.7985)">
					<stop offset="0" style="stop-color:#FFFFFF" />
					<stop offset="1.000000e-02" style="stop-color:#FAFAFA" />
					<stop offset="0.13" style="stop-color:#C0C0C0" />
					<stop offset="0.25" style="stop-color:#8D8D8D" />
					<stop offset="0.37" style="stop-color:#626262" />
					<stop offset="0.5" style="stop-color:#3E3E3E" />
					<stop offset="0.62" style="stop-color:#232323" />
					<stop offset="0.74" style="stop-color:#0F0F0F" />
					<stop offset="0.87" style="stop-color:#040404" />
					<stop offset="1" style="stop-color:#000000" />
				</linearGradient>
				<path class="st1" d="M17.5,101.2c-2.5,0-6.3-0.5-9.1-3.4c-2.2-2.2-3.1-5.6-2.3-9c1.5-6.8,5.7-15.1,17.1-16.6
				c0.3,0,0.5-0.1,0.8-0.2c0.2,0,0.4-0.1,0.7-0.1c7.5-1.2,14.8-5,20.5-10.8c2.8-2.9,5.6-5.9,8.5-9c4.5-4.8,7.8-10.5,9.8-16.7
				c0.4-1.4,0.6-2.8,0.6-4.3c0-1.4,0.2-2.8,0.6-4.1c0.9-3.2,1.9-6.2,4.3-8.4c2.4-2.1,5.3-3.6,8.3-4.5c3.5-1,6.8-1.2,9.4-0.3
				c5.2,1.7,7.6,7.3,7.4,12.1c0,0.4-0.1,0.8-0.1,1.2c-1,7.2,1.4,14.4,6.6,19.9c1.4,1.4,2.8,2.9,4.1,4.3c1.3,1.3,2.5,2.6,3.8,3.9
				c5.2,5.4,13.3,8.6,21.8,8.6h0.4c0.6,0,1.2,0,1.8,0.1l0,0c9.4,0.9,17.6,9.1,18.3,18.3c0.3,4-1.1,8-3.9,10.9
				c-3.2,3.3-8,5.3-12.9,5.2c-4.8-0.1-9.4-2-13-5.2c-3.6-3.2-5.8-7.7-6-12.5c0-0.1,0-0.2,0-0.3v0c-0.2-7.4-3.2-14.4-8.5-19.6
				c-2.1-2.1-4.2-4.3-6.3-6.4c-1.6-1.7-3.3-3.4-4.9-5.1c-4.7-4.8-11.4-7.1-18.1-6.3h-0.2c-8.4,0.9-14.8,6-18.7,10.1
				c-1.2,1.3-2.4,2.6-3.6,3.9c-2.7,3-5.5,6-8.4,8.9c-4,4.1-9.1,10.8-10,18.7l0,0.3c-1.3,8.8-9,15.9-17.7,16.4
				C18.2,101.2,17.9,101.2,17.5,101.2z M82.8,13.7c-4.9,0-10.4,2.4-13.6,5.2c-2.4,2.1-3.3,5-4.2,8.1c-0.3,1.3-0.5,2.7-0.5,4
				c0,1.5-0.3,3-0.6,4.4c-2,6.3-5.4,12.1-9.9,16.9c-2.9,3.1-5.7,6.1-8.5,9c-5.8,5.9-13.2,9.8-20.8,11c-0.2,0-0.4,0.1-0.6,0.1
				c-0.3,0.1-0.5,0.1-0.8,0.2C12.2,74.1,8.1,82.3,6.6,88.9c-0.7,3.2,0.1,6.4,2.2,8.6c3.1,3.1,7.4,3.3,9.7,3.2
				c8.4-0.5,15.9-7.5,17.2-16c0-0.1,0-0.2,0-0.3c1-8.1,6.1-14.8,10.2-19c2.9-2.9,5.7-5.9,8.4-8.9c1.2-1.3,2.4-2.6,3.6-3.9
				c3.9-4.1,10.4-9.3,19-10.2h0.2c6.8-0.8,13.6,1.6,18.5,6.5c1.7,1.7,3.3,3.4,5,5.1c2,2.1,4.2,4.3,6.3,6.4
				c5.3,5.3,8.4,12.4,8.6,19.9v0c0,0.1,0,0.2,0,0.3c0.4,9.3,8.7,17,18.5,17.3c4.8,0.1,9.5-1.8,12.6-5c2.7-2.8,4.1-6.6,3.8-10.5
				c-0.6-9-8.6-17-17.8-17.8c-0.6-0.1-1.1-0.1-1.7-0.1c-8.7,0.1-17.2-3.2-22.5-8.8c-1.3-1.3-2.5-2.6-3.8-4c-1.3-1.4-2.8-2.9-4.2-4.3
				c-5.3-5.6-7.7-13-6.7-20.3c0.1-0.4,0.1-0.8,0.1-1.2c0.2-4.5-2.1-10-7-11.6C85.3,13.9,84,13.7,82.8,13.7z" />

				<linearGradient id="SVGID_3_" gradientUnits="userSpaceOnUse" x1="158.1936" y1="-207.6348" x2="185.582"
					y2="-207.6348" gradientTransform="matrix(1 0 0 -1 -0.55 -28.7985)">
					<stop offset="0" style="stop-color:#FFFFFF" />
					<stop offset="1.000000e-02" style="stop-color:#FAFAFA" />
					<stop offset="0.13" style="stop-color:#C0C0C0" />
					<stop offset="0.25" style="stop-color:#8D8D8D" />
					<stop offset="0.37" style="stop-color:#626262" />
					<stop offset="0.5" style="stop-color:#3E3E3E" />
					<stop offset="0.62" style="stop-color:#232323" />
					<stop offset="0.74" style="stop-color:#0F0F0F" />
					<stop offset="0.87" style="stop-color:#040404" />
					<stop offset="1" style="stop-color:#000000" />
				</linearGradient>
				<path class="st2" d="M159.8,192.5c-0.5,0-0.9-0.2-1.3-0.5c-1.7-1.5-0.3-5.2,0.3-6.9l0.1-0.2c3.2-8.1,10.4-15.4,18.6-18.5l0.2-0.1
				c1.8-0.7,5.4-2.1,7-0.4c1.3,1.6-0.7,4.2-1.8,5.6l-0.3,0.3c-2.5,3.2-5.4,6.2-8.3,9.1l-0.9,0.9c-2.8,2.8-5.8,5.8-9,8.2l-0.3,0.2
				C163,191.1,161.3,192.5,159.8,192.5z M159.3,185.1l-0.1,0.2c-0.6,1.5-2,5.1-0.5,6.4c1.3,1.1,3.8-0.8,5-1.7l0.3-0.2
				c3.2-2.4,6.1-5.3,8.9-8.1l0.9-0.9c2.9-2.9,5.8-5.8,8.3-9l0.3-0.3c0.9-1.2,2.9-3.7,1.8-5c-1.3-1.5-4.9-0.1-6.4,0.5l-0.2,0.1
				C169.7,169.9,162.4,177.3,159.3,185.1L159.3,185.1z" />

				<linearGradient id="SVGID_4_" gradientUnits="userSpaceOnUse" x1="22.4535" y1="-207.6596" x2="49.8453"
					y2="-207.6596" gradientTransform="matrix(1 0 0 -1 -0.55 -28.7985)">
					<stop offset="0" style="stop-color:#FFFFFF" />
					<stop offset="1.000000e-02" style="stop-color:#FAFAFA" />
					<stop offset="0.13" style="stop-color:#C0C0C0" />
					<stop offset="0.25" style="stop-color:#8D8D8D" />
					<stop offset="0.37" style="stop-color:#626262" />
					<stop offset="0.5" style="stop-color:#3E3E3E" />
					<stop offset="0.62" style="stop-color:#232323" />
					<stop offset="0.74" style="stop-color:#0F0F0F" />
					<stop offset="0.87" style="stop-color:#040404" />
					<stop offset="1" style="stop-color:#000000" />
				</linearGradient>
				<path class="st3" d="M47.2,192.5c-1.5,0-3.3-1.4-4.3-2.2l-0.3-0.2c-3.2-2.5-6.2-5.4-9.1-8.3l-0.7-0.7c-2.9-2.9-5.9-5.9-8.4-9.2
				l0,0l-0.3-0.3c-1-1.3-3.1-4-1.8-5.6c1.5-1.7,5.2-0.3,6.9,0.4l0.2,0.1c8.1,3.2,15.4,10.5,18.6,18.6l0.1,0.2
				c0.7,1.7,2.1,5.3,0.3,6.8C48.1,192.4,47.6,192.6,47.2,192.5z M24.7,171.6c2.5,3.2,5.5,6.2,8.3,9.1l0.7,0.7c2.9,2.9,5.8,5.8,9,8.3
				l0.3,0.2c1.2,0.9,3.7,2.9,5,1.8c1.5-1.3,0.1-4.8-0.5-6.3l-0.1-0.2c-3.1-8-10.3-15.2-18.3-18.4l-0.2-0.1c-1.5-0.6-5.1-2-6.4-0.5
				c-1.1,1.3,0.8,3.7,1.8,4.9L24.7,171.6L24.7,171.6z" />

				<linearGradient id="SVGID_5_" gradientUnits="userSpaceOnUse" x1="158.1766" y1="-71.8494" x2="185.5537"
					y2="-71.8494" gradientTransform="matrix(1 0 0 -1 -0.55 -28.7985)">
					<stop offset="0" style="stop-color:#FFFFFF" />
					<stop offset="1.000000e-02" style="stop-color:#FAFAFA" />
					<stop offset="0.13" style="stop-color:#C0C0C0" />
					<stop offset="0.25" style="stop-color:#8D8D8D" />
					<stop offset="0.37" style="stop-color:#626262" />
					<stop offset="0.5" style="stop-color:#3E3E3E" />
					<stop offset="0.62" style="stop-color:#232323" />
					<stop offset="0.74" style="stop-color:#0F0F0F" />
					<stop offset="0.87" style="stop-color:#040404" />
					<stop offset="1" style="stop-color:#000000" />
				</linearGradient>
				<path class="st4" d="M182.4,56.7c-1.7,0-3.7-0.8-4.8-1.3l-0.2-0.1c-8.1-3.2-15.4-10.5-18.5-18.5l-0.1-0.1
				c-0.7-1.7-2.1-5.3-0.3-6.8c1.6-1.3,4.2,0.7,5.6,1.7l0.3,0.2c3.2,2.4,6.1,5.4,9,8.2l0.9,0.9c2.9,2.9,5.8,5.8,8.3,9.1l0.3,0.3
				c1,1.3,3.1,4,1.7,5.5C184,56.4,183.2,56.7,182.4,56.7z M159.8,29.9c-0.4,0-0.7,0.1-1,0.3c-1.5,1.3-0.1,4.8,0.5,6.3l0.1,0.1
				c3.1,7.9,10.3,15,18.2,18.2l0.2,0.1c1.5,0.6,5.1,2.1,6.4,0.6c1.1-1.2-0.8-3.7-1.7-4.9c-0.1-0.1-0.2-0.2-0.3-0.3
				c-2.4-3.2-5.4-6.2-8.2-9l-0.9-0.9c-2.8-2.8-5.7-5.7-8.9-8.2l-0.3-0.3C162.8,31.3,161.1,29.9,159.8,29.9z" />

				<linearGradient id="SVGID_6_" gradientUnits="userSpaceOnUse" x1="22.4656" y1="-71.8099" x2="49.8442"
					y2="-71.8099" gradientTransform="matrix(1 0 0 -1 -0.55 -28.7985)">
					<stop offset="0" style="stop-color:#FFFFFF" />
					<stop offset="1.000000e-02" style="stop-color:#FAFAFA" />
					<stop offset="0.13" style="stop-color:#C0C0C0" />
					<stop offset="0.25" style="stop-color:#8D8D8D" />
					<stop offset="0.37" style="stop-color:#626262" />
					<stop offset="0.5" style="stop-color:#3E3E3E" />
					<stop offset="0.62" style="stop-color:#232323" />
					<stop offset="0.74" style="stop-color:#0F0F0F" />
					<stop offset="0.87" style="stop-color:#040404" />
					<stop offset="1" style="stop-color:#000000" />
				</linearGradient>
				<path class="st5" d="M24.5,56.6c-0.8,0.1-1.5-0.2-2.1-0.8c-1.4-1.5,0.7-4.2,1.7-5.5l0.3-0.3c2.5-3.3,5.5-6.3,8.4-9.1l0.7-0.7
				c2.9-2.9,5.8-5.8,9.1-8.3l0.3-0.2c1.4-1.1,4-3.1,5.6-1.8c1.8,1.4,0.4,5-0.3,6.7l-0.1,0.2c-3.2,8-10.4,15.3-18.5,18.6l-0.2,0.1
				C28.2,55.8,26.2,56.6,24.5,56.6z M24.5,50.2l0.2,0.1c-0.1,0.1-0.2,0.2-0.3,0.3c-0.9,1.2-2.9,3.7-1.7,4.9c1.3,1.4,4.9,0,6.4-0.6
				l0.2-0.1c8-3.2,15.1-10.4,18.2-18.3l0.1-0.2c0.6-1.5,1.9-4.9,0.4-6.1c-1.3-1.1-3.8,0.9-5,1.8l-0.3,0.3c-3.2,2.5-6.2,5.4-9,8.3
				l-0.7,0.7c-2.9,2.9-5.9,5.9-8.3,9.1L24.5,50.2z" />

				<linearGradient id="SVGID_7_" gradientUnits="userSpaceOnUse" x1="113.497" y1="-113.818" x2="201.6401"
					y2="-113.818" gradientTransform="matrix(1 0 0 -1 -0.55 -28.7985)">
					<stop offset="0" style="stop-color:#FFFFFF" />
					<stop offset="1.000000e-02" style="stop-color:#FAFAFA" />
					<stop offset="0.13" style="stop-color:#C0C0C0" />
					<stop offset="0.25" style="stop-color:#8D8D8D" />
					<stop offset="0.37" style="stop-color:#626262" />
					<stop offset="0.5" style="stop-color:#3E3E3E" />
					<stop offset="0.62" style="stop-color:#232323" />
					<stop offset="0.74" style="stop-color:#0F0F0F" />
					<stop offset="0.87" style="stop-color:#040404" />
					<stop offset="1" style="stop-color:#000000" />
				</linearGradient>
				<path class="st6" d="M131.1,156.7c-4.1,0-7.9-1.6-10.9-4.4c-3.6-3.5-5.6-8.3-5.5-13.3c0.2-10.1,8.7-18.4,19-18.5h0.4
				c8.5,0.1,16.6-3.2,22.1-9c2-2.1,4.2-4.1,6.3-6.1l1.6-1.5c5.2-4.9,7.7-12.1,6.6-19.2v-0.1c0-0.1,0-0.2,0-0.2v-0.1
				c-0.9-6.8-4.5-13.6-10.9-20.1c-2.5-2.6-5-5.2-7.4-7.8l-2.2-2.4c-5.9-6.2-13-10.1-20.2-10.9l-0.3,0l0,0c-4.4-0.6-8.4-2.6-11.5-5.7
				c-3.3-3.3-5.2-7.3-5.3-11.5c-0.1-4.1,1.4-7.9,4.2-10.2c2.4-2,5.3-2.6,8.5-1.9c7.3,1.6,14.6,8.9,16.7,16.7
				c0.1,0.3,0.1,0.6,0.2,0.8c2,9.2,7.2,16.4,11.3,20.9c2.6,2.8,5.3,5.6,7.9,8.3c5.8,5.9,13.2,10,21.3,11.7l0.2,0.1
				c0.1,0,0.2,0.1,0.3,0.1c10.4,1.5,15.2,6.2,17.3,16.6c0.7,3.6-0.2,6.8-2.4,9c-1.4,1.4-4.6,3.7-10.1,3.3l-0.3,0
				c-7.3-0.8-14.6,1.6-20,6.5c-2.9,2.7-5.7,5.5-8.1,7.8c-5.4,5.4-8.7,13.4-9.1,21.9l0,0.4c-0.4,4.8-2.5,9.4-5.9,12.9
				c-3.5,3.7-8.1,5.9-12.7,6.2C131.8,156.7,131.4,156.7,131.1,156.7z M133.9,121h-0.1c-10,0.1-18.3,8.2-18.5,18
				c-0.1,4.9,1.8,9.6,5.3,13c3.1,3,7.3,4.5,11.6,4.2c4.5-0.3,8.9-2.5,12.4-6c3.3-3.4,5.4-7.8,5.8-12.5c0-0.1,0-0.3,0-0.4
				c0.4-8.6,3.8-16.7,9.2-22.2c2.4-2.4,5.2-5.1,8.1-7.8c5.6-5,13-7.4,20.4-6.6l0.3,0c2.3,0.2,6.6,0,9.8-3.1c2.1-2.1,2.9-5.2,2.3-8.6
				c-1-5.4-2.8-9.1-5.6-11.6c-2.6-2.4-6.2-3.9-11.3-4.6c-0.1,0-0.3-0.1-0.4-0.1l-0.2-0.1c-8.2-1.8-15.7-5.9-21.6-11.9
				c-2.6-2.7-5.3-5.5-7.9-8.3c-4.1-4.5-9.4-11.8-11.4-21.1c0-0.2-0.1-0.5-0.2-0.8c-2-7.6-9.2-14.8-16.3-16.3c-3-0.7-5.8,0-8.1,1.8
				c-2.7,2.2-4.2,5.9-4.1,9.8c0.1,4,2,8,5.2,11.2c3.1,3,7,4.9,11.2,5.6l0,0l0.3,0c7.2,0.8,14.5,4.7,20.4,11c0.7,0.8,1.5,1.6,2.2,2.4
				c2.4,2.6,4.9,5.3,7.4,7.8c6.5,6.6,10.2,13.5,11,20.4v0.1c0,0.1,0,0.2,0,0.2v0.1c1,7.4-1.4,14.3-6.8,19.6l-1.7,1.6
				c-2.1,1.9-4.2,4-6.2,6.1c-5.6,5.8-13.6,9.2-22.2,9.2L133.9,121L133.9,121z" />

				<linearGradient id="SVGID_8_" gradientUnits="userSpaceOnUse" x1="56.6172" y1="-193.061" x2="201.6856"
					y2="-193.061" gradientTransform="matrix(1 0 0 -1 -0.55 -28.7985)">
					<stop offset="0" style="stop-color:#FFFFFF" />
					<stop offset="1.000000e-02" style="stop-color:#FAFAFA" />
					<stop offset="0.13" style="stop-color:#C0C0C0" />
					<stop offset="0.25" style="stop-color:#8D8D8D" />
					<stop offset="0.37" style="stop-color:#626262" />
					<stop offset="0.5" style="stop-color:#3E3E3E" />
					<stop offset="0.62" style="stop-color:#232323" />
					<stop offset="0.74" style="stop-color:#0F0F0F" />
					<stop offset="0.87" style="stop-color:#040404" />
					<stop offset="1" style="stop-color:#000000" />
				</linearGradient>
				<path class="st7" d="M123.3,208.6c-2.2,0-4.3-0.8-6-2.2c-2.8-2.4-4.5-6.5-4.3-10.7c0-0.4,0.1-0.8,0.1-1.3
				c1-7.4-1.4-14.6-6.6-20.4c-1.2-1.3-2.4-2.6-3.5-3.8c-1.4-1.6-2.9-3.2-4.4-4.7c-5.5-5.9-13.8-9.3-22.3-9.1c-0.6,0-1.2,0-1.8-0.1
				c-9.5-0.8-17.7-9.3-18.3-18.9c-0.3-4.4,1.2-8.6,4.2-11.8c3.3-3.5,7.9-5.4,12.7-5.4l0,0c10.1,0,18.7,8.2,19.1,18.2v0.3
				c0.2,7.8,3.3,15.2,8.5,21l2.6,2.9c2.8,3.1,5.6,6.2,8.5,9.3c4.9,5,11.4,7.3,18.2,6.5l0.2,0c6.6-0.7,13.3-4.3,18.7-10.3
				c0.9-1,1.8-2,2.7-2.9c3-3.3,6-6.7,9.2-9.9c5.9-6.2,9.3-12.6,10.1-19.1c0-0.1,0-0.2,0-0.3c1.3-9,9-16,17.5-16h0.1
				c4.2,0,8.1,1.8,10.4,4.7c1.9,2.4,2.6,5.6,1.9,8.6c-1.7,7.8-7,16.1-17,16.2c-0.3,0-0.6,0.1-0.8,0.1c-0.2,0-0.4,0.1-0.6,0.1
				c-7.5,1-14.8,4.7-20.6,10.6c-2.8,2.9-5.6,5.9-8.4,8.9c-5.6,6.3-9.4,13.7-10.7,20.9c-0.1,0.4-0.2,0.8-0.3,1.2
				c-0.1,0.4-0.2,0.9-0.3,1.3c-0.9,3.7-2,7.9-4.6,10.6c-2.2,2.2-6.1,3.9-11.9,5.2C124.9,208.5,124.1,208.6,123.3,208.6z M77.1,155.9
				c8.3,0,16.4,3.4,21.8,9.3c1.5,1.6,2.9,3.2,4.4,4.7c1.1,1.3,2.3,2.6,3.5,3.8c5.3,5.9,7.8,13.3,6.8,20.8c-0.1,0.5-0.1,0.9-0.1,1.2
				c-0.2,4,1.4,8,4.1,10.3c2.2,1.9,5.2,2.5,8,1.8c5.7-1.3,9.5-2.9,11.6-5.1c2.6-2.6,3.6-6.7,4.5-10.3c0.1-0.4,0.2-0.9,0.3-1.3
				c0.1-0.4,0.2-0.8,0.3-1.2c1.3-7.3,5.1-14.8,10.8-21.1c2.8-3.1,5.6-6.1,8.4-9c5.9-5.9,13.3-9.8,20.9-10.7c0.2,0,0.4-0.1,0.5-0.1
				c0.3-0.1,0.6-0.1,0.9-0.1c9.7-0.1,14.9-8.2,16.5-15.8c0.7-2.9,0-5.9-1.8-8.2c-2.2-2.8-6-4.5-10.1-4.5c-8.4,0-15.9,6.8-17.1,15.6
				l0,0.3c-0.8,6.6-4.3,13.1-10.2,19.4c-3.1,3.2-6.2,6.6-9.1,9.9c-0.9,1-1.8,2-2.7,2.9c-5.6,6-12.3,9.7-19,10.4h-0.2
				c-7,0.8-13.6-1.6-18.7-6.7c-2.9-3-5.8-6.2-8.5-9.3c-0.9-1-1.7-1.9-2.6-2.9c-5.3-5.8-8.4-13.4-8.6-21.3c0-0.1,0-0.2,0-0.3
				c-0.4-9.8-8.7-17.7-18.6-17.7l0,0c-4.7,0-9.1,1.9-12.4,5.3c-2.9,3.1-4.4,7.2-4.1,11.5c0.4,4.7,2.4,9.1,5.7,12.4
				c3.4,3.5,7.7,5.7,12.2,6l0,0c0.6,0,1.2,0.1,1.7,0C76.5,155.9,76.8,155.9,77.1,155.9z" />
			</g>

			<radialGradient id="SVGID_9_" cx="3008.6724" cy="-2275.905" r="6.4313"
				gradientTransform="matrix(2.3424 1.3628 1.3628 -2.3424 -3754.7983 -9337.2715)"
				gradientUnits="userSpaceOnUse">
				<stop offset="0" style="stop-color:#FFFFFF" />
				<stop offset="1" style="stop-color:#000000;stop-opacity:0" />
			</radialGradient>
			<circle class="st8" cx="189.3" cy="87.6" r="17.4" />

			<radialGradient id="SVGID_10_" cx="2998.0173" cy="-2329.2151" r="4.5474"
				gradientTransform="matrix(2.3424 1.3628 1.3628 -2.3424 -3754.1431 -9337.4521)"
				gradientUnits="userSpaceOnUse">
				<stop offset="0" style="stop-color:#FFFFFF" />
				<stop offset="1" style="stop-color:#000000;stop-opacity:0" />
			</radialGradient>
			<circle class="st9" cx="92" cy="196.9" r="12.3" />

			<radialGradient id="SVGID_11_" cx="2968.9714" cy="-2289.4465" r="4.5474"
				gradientTransform="matrix(2.3424 1.3628 1.3628 -2.3424 -3754.1174 -9337.4512)"
				gradientUnits="userSpaceOnUse">
				<stop offset="0" style="stop-color:#FFFFFF" />
				<stop offset="1" style="stop-color:#000000;stop-opacity:0" />
			</radialGradient>
			<circle class="st10" cx="78.2" cy="64.4" r="12.3" />

			<linearGradient id="SVGID_12_" gradientUnits="userSpaceOnUse" x1="-3886.9404" y1="-1094.7296"
				x2="-3799.2407" y2="-1094.7296" gradientTransform="matrix(-1 0 0 1 -3785.2817 1230.2001)">
				<stop offset="0" style="stop-color:#D70FE0" />
				<stop offset="0.31" style="stop-color:#8C0FE0" />
				<stop offset="0.46" style="stop-color:#6235EC" />
				<stop offset="0.61" style="stop-color:#3062FB" />
				<stop offset="0.68" style="stop-color:#3166FB" />
				<stop offset="0.75" style="stop-color:#3272F9" />
				<stop offset="0.82" style="stop-color:#3586F8" />
				<stop offset="0.89" style="stop-color:#38A1F5" />
				<stop offset="0.96" style="stop-color:#3DC5F1" />
				<stop offset="1" style="stop-color:#40DEEF" />
			</linearGradient>
			<path class="st11" d="M64.5,81.3c-0.1,0.5-0.1,1.1-0.1,1.7c0.1,7.7-2.9,15.6-8.4,21.1c-2.7,2.7-5.4,5.3-8,8
			c-5.3,5.4-12.7,8.1-20.2,7.4c-0.4,0-0.8-0.1-1.3-0.1c-7.2-0.2-14,5.3-12.3,13c1.7,7.5,4,16.2,16.9,16c0.4,0,0.8,0.1,1.2,0.2
			c8,1,15.3,5.1,20.9,10.8c2.8,3,5.7,6,8.4,9c5.2,5.8,9.3,13.1,10.6,20.8c0.1,0.4,0.2,0.9,0.3,1.4c1.1,4,3.6,7.6,6.6,10.5
			c2.8,2.7,6.2,5.2,10.1,6.1c7.7,1.7,12.6-5.2,12.4-12.2c-0.3-8.8-8-16.3-16.7-17.4l-0.3,0c-7.4-0.8-14-4.9-19-10.2
			c-3.9-4.3-7.8-8.7-11.8-12.8c-5-5.2-9.2-11.8-10.1-19.1v-0.1v-0.1c-0.8-6.8,1.5-13.2,6.1-18.3c3.6-3.9,7.2-7.8,11-11.5
			c5.4-5.3,12.8-8.1,20.2-8.4h0.3c9.5-0.4,18.2-8,18.3-17.8c0.1-8.7-6.8-15.9-15.5-16c-0.5,0-1,0-1.4,0
			C73.6,64.1,65.4,72.1,64.5,81.3z" />

			<linearGradient id="SVGID_13_" gradientUnits="userSpaceOnUse" x1="-3943.5259" y1="-1173.7921"
				x2="-3799.2419" y2="-1173.7921" gradientTransform="matrix(-1 0 0 1 -3785.2817 1230.2001)">
				<stop offset="0" style="stop-color:#A80FE0" />
				<stop offset="0.23" style="stop-color:#7E2CE9" />
				<stop offset="0.61" style="stop-color:#3062FB" />
				<stop offset="0.68" style="stop-color:#3166FB" />
				<stop offset="0.75" style="stop-color:#3272F9" />
				<stop offset="0.82" style="stop-color:#3586F8" />
				<stop offset="0.89" style="stop-color:#38A1F5" />
				<stop offset="0.96" style="stop-color:#3DC5F1" />
				<stop offset="1" style="stop-color:#40DEEF" />
			</linearGradient>
			<path class="st12" d="M140.2,63.4c-0.6-0.1-1.2-0.1-1.7-0.1c-8.1,0.1-16.7-2.8-22.3-8.7c-2.7-2.8-5.3-5.5-7.9-8.3
			c-5.1-5.4-7.7-12.7-6.7-20.1c0.1-0.4,0.1-0.8,0.1-1.2c0.3-4.9-2.3-10.2-7.2-11.8C88.9,11.4,81,14.3,76.9,18
			c-2.4,2.1-3.4,5.1-4.3,8.2c-0.8,2.8-0.3,5.6-1.2,8.4c-1.9,6.2-5.4,12-9.8,16.8c-2.8,3-5.6,6.1-8.5,9c-5.5,5.6-12.8,9.7-20.6,10.9
			c-0.4,0.1-0.9,0.2-1.4,0.3C20.6,73,15.9,80.5,14.2,88c-0.7,3.1,0,6.5,2.3,8.8c2.6,2.6,6.4,3.4,9.9,3.3c8.6-0.5,16.2-7.7,17.4-16.2
			l0-0.3c0.9-7.2,5.1-13.7,10.1-18.8c4.1-4.1,8-8.5,11.9-12.8c5-5.3,11.5-9.3,18.8-10.2h0.1h0.1c6.7-0.8,13.5,1.5,18.3,6.3
			c3.8,3.8,7.4,7.7,11.2,11.5c5.3,5.3,8.3,12.3,8.5,19.8c0,0.1,0,0.2,0,0.3c0.4,9.9,9.2,17.3,18.8,17.5c9,0.2,17.3-6.4,16.6-15.8
			C157.6,72.3,149.3,64.3,140.2,63.4z" />

			<linearGradient id="SVGID_14_" gradientUnits="userSpaceOnUse" x1="-3969.4878" y1="-1058.8394" x2="-3945.262"
				y2="-1058.8394" gradientTransform="matrix(-1 0 0 1 -3785.2817 1230.2001)">
				<stop offset="0" style="stop-color:#8C0FE0" />
				<stop offset="0.29" style="stop-color:#6235EC" />
				<stop offset="0.61" style="stop-color:#3062FB" />
				<stop offset="0.68" style="stop-color:#3166FB" />
				<stop offset="0.75" style="stop-color:#3272F9" />
				<stop offset="0.82" style="stop-color:#3586F8" />
				<stop offset="0.89" style="stop-color:#38A1F5" />
				<stop offset="0.96" style="stop-color:#3DC5F1" />
				<stop offset="1" style="stop-color:#40DEEF" />
			</linearGradient>
			<path class="st13" d="M161.1,177c2.8-7.2,9.4-13.8,16.6-16.6c1.4-0.5,4.9-2,6.2-0.4c1.2,1.4-1,4-1.8,5c-2.3,3-5.1,5.8-7.8,8.5
			s-5.5,5.5-8.5,7.8c-1,0.8-3.6,3-5,1.8C159.2,181.8,160.6,178.3,161.1,177z" />

			<linearGradient id="SVGID_15_" gradientUnits="userSpaceOnUse" x1="-3842.2068" y1="-1052.1344"
				x2="-3815.3062" y2="-1052.1344" gradientTransform="matrix(-1 0 0 1 -3785.2817 1230.2001)">
				<stop offset="0" style="stop-color:#8C0FE0" />
				<stop offset="0.29" style="stop-color:#6235EC" />
				<stop offset="0.61" style="stop-color:#3062FB" />
				<stop offset="0.68" style="stop-color:#3166FB" />
				<stop offset="0.75" style="stop-color:#3272F9" />
				<stop offset="0.82" style="stop-color:#3586F8" />
				<stop offset="0.89" style="stop-color:#38A1F5" />
				<stop offset="0.96" style="stop-color:#3DC5F1" />
				<stop offset="1" style="stop-color:#40DEEF" />
			</linearGradient>
			<path class="st14" d="M32.4,170.9c-0.8-1.1-3.4-4-2-5.6c1.5-1.7,5.3-0.1,6.9,0.5c8,3.1,15.3,10.5,18.4,18.5
			c0.6,1.5,2.2,5.3,0.5,6.7c-1.6,1.3-4.5-1.2-5.6-2c-3.4-2.6-6.4-5.7-9.5-8.7C38.1,177.4,35,174.3,32.4,170.9z" />

			<linearGradient id="SVGID_16_" gradientUnits="userSpaceOnUse" x1="185.3359" y1="-67.6023" x2="144.5894"
				y2="-100.5457" gradientTransform="matrix(1 0 0 -1 -0.55 -28.7985)">
				<stop offset="0.18" style="stop-color:#8C0FE0" />
				<stop offset="0.39" style="stop-color:#6235EC" />
				<stop offset="0.61" style="stop-color:#3062FB" />
				<stop offset="0.68" style="stop-color:#3166FB" />
				<stop offset="0.75" style="stop-color:#3272F9" />
				<stop offset="0.82" style="stop-color:#3586F8" />
				<stop offset="0.89" style="stop-color:#38A1F5" />
				<stop offset="0.96" style="stop-color:#3DC5F1" />
				<stop offset="1" style="stop-color:#40DEEF" />
			</linearGradient>
			<path class="st15" d="M161.1,43.4c-0.5-1.4-1.9-4.7-0.4-6c1.4-1.2,4,1,5,1.8c3,2.3,5.8,5.1,8.5,7.8c2.7,2.7,5.5,5.5,7.8,8.5
			c0.8,1,3,3.6,1.8,5c-1.4,1.5-4.8,0-6.2-0.6C170.5,57.1,163.9,50.5,161.1,43.4z" />

			<linearGradient id="SVGID_17_" gradientUnits="userSpaceOnUse" x1="-3842.2412" y1="-1187.9897"
				x2="-3815.3525" y2="-1187.9897" gradientTransform="matrix(-1 0 0 1 -3785.2817 1230.2001)">
				<stop offset="0" style="stop-color:#8C0FE0" />
				<stop offset="0.29" style="stop-color:#6235EC" />
				<stop offset="0.61" style="stop-color:#3062FB" />
				<stop offset="0.68" style="stop-color:#3166FB" />
				<stop offset="0.75" style="stop-color:#3272F9" />
				<stop offset="0.82" style="stop-color:#3586F8" />
				<stop offset="0.89" style="stop-color:#38A1F5" />
				<stop offset="0.96" style="stop-color:#3DC5F1" />
				<stop offset="1" style="stop-color:#40DEEF" />
			</linearGradient>
			<path class="st16" d="M32.4,49.4c2.6-3.4,5.7-6.4,8.7-9.5c3-3,6.1-6.1,9.4-8.7c1.1-0.9,4-3.4,5.6-2.1c1.7,1.4,0.1,5.1-0.4,6.6
			c-3.1,8-10.4,15.2-18.4,18.5c-1.5,0.6-5.4,2.3-6.9,0.7C29.1,53.4,31.6,50.5,32.4,49.4z" />

			<linearGradient id="SVGID_18_" gradientUnits="userSpaceOnUse" x1="-3993.9905" y1="-1145.9836"
				x2="-3906.3608" y2="-1145.9836" gradientTransform="matrix(-1 0 0 1 -3785.2817 1230.2001)">
				<stop offset="0" style="stop-color:#8C0FE0" />
				<stop offset="0.29" style="stop-color:#6235EC" />
				<stop offset="0.61" style="stop-color:#3062FB" />
				<stop offset="0.68" style="stop-color:#3166FB" />
				<stop offset="0.75" style="stop-color:#3272F9" />
				<stop offset="0.82" style="stop-color:#3586F8" />
				<stop offset="0.89" style="stop-color:#38A1F5" />
				<stop offset="0.96" style="stop-color:#3DC5F1" />
				<stop offset="1" style="stop-color:#40DEEF" />
			</linearGradient>
			<path class="st17"
				d="M137.7,41.9l0.3,0c7.9,0.9,14.9,5.3,20.3,11c3.2,3.4,6.3,6.9,9.6,10.2c5.4,5.5,10,12.4,11,20.2v0.1
			c0,0.1,0,0.2,0,0.3c1.1,7.2-1.5,14.4-6.7,19.4c-2.7,2.5-5.4,5-7.9,7.6c-5.8,6.1-14,9.1-22.3,9.1h-0.4c-10,0.1-18.6,8.2-18.8,18.3
			c-0.2,9.5,7.3,18.1,17.2,17.4c9.6-0.7,17.7-9.4,18.4-18.8c0-0.1,0-0.3,0-0.4c0.4-8,3.4-16.3,9.1-22c2.7-2.6,5.3-5.3,8.1-7.8
			c5.5-4.9,12.9-7.3,20.2-6.5l0.3,0c3.5,0.2,7.3-0.6,10-3.2c2.4-2.3,3-5.6,2.3-8.8c-2.1-10.8-7.2-15-17.1-16.4
			c-0.2,0-0.4-0.1-0.6-0.1c-8.1-1.7-15.6-5.8-21.4-11.8c-2.7-2.7-5.3-5.5-7.9-8.3c-5.4-5.9-9.7-13.2-11.3-21
			c-0.1-0.3-0.1-0.5-0.2-0.8c-1.9-7.3-9-14.9-16.5-16.5c-7.5-1.6-12.6,4.9-12.4,11.9C121.4,33.6,129.2,40.8,137.7,41.9z" />

			<linearGradient id="SVGID_19_" gradientUnits="userSpaceOnUse" x1="197.9267" y1="-96.8251" x2="92.9997"
				y2="-209.4536" gradientTransform="matrix(1 0 0 -1 -0.55 -28.7985)">
				<stop offset="0.18" style="stop-color:#AC0FE0" />
				<stop offset="0.33" style="stop-color:#822BE9" />
				<stop offset="0.58" style="stop-color:#3062FB" />
				<stop offset="0.66" style="stop-color:#3166FB" />
				<stop offset="0.73" style="stop-color:#3272F9" />
				<stop offset="0.81" style="stop-color:#3586F8" />
				<stop offset="0.88" style="stop-color:#38A1F5" />
				<stop offset="0.95" style="stop-color:#3DC5F1" />
				<stop offset="1" style="stop-color:#40DEEF" />
			</linearGradient>
			<path class="st18"
				d="M82.4,155.3c0.6,0.1,1.2,0.1,1.8,0c8.3-0.2,16.8,3,22.5,9.2c2.6,2.8,5.2,5.7,7.9,8.6
			c5.1,5.7,7.7,13,6.7,20.6c-0.1,0.4-0.1,0.8-0.1,1.2c-0.3,7.1,4.7,14.1,12.5,12.3c3.9-0.9,9-2.4,11.7-5.2c2.9-3,3.8-7.7,4.9-11.8
			c0.1-0.4,0.2-0.8,0.3-1.2c1.4-7.8,5.5-15.2,10.8-21c2.8-3,5.6-6,8.4-9c5.6-5.6,12.8-9.6,20.7-10.6c0.5-0.1,1-0.2,1.4-0.3
			c10-0.1,15.1-8.5,16.8-16c1.7-7.7-5-12.9-12.1-12.9c-8.7,0-16.1,7.2-17.4,15.8l0,0.3c-0.9,7.4-5.1,13.9-10.2,19.2
			c-4,4.2-7.9,8.5-11.8,12.8c-5,5.3-11.5,9.5-18.9,10.3h-0.1H138c-6.8,0.8-13.7-1.6-18.5-6.6c-3.8-4-7.4-8.1-11.1-12.2
			c-5.3-5.8-8.3-13.3-8.6-21.1c0-0.1,0-0.2,0-0.3c-0.4-10-8.9-18-18.8-18c-9.4,0-17.3,7.4-16.7,17C64.9,146,73,154.5,82.4,155.3z" />
		</g>
		<g class="st19">
			<path class="st20" d="M240.3,139.3v-69h21.2c6.1,0,11.5,1.4,16.3,4.1c4.8,2.7,8.5,6.6,11.2,11.7c2.7,5,4,10.8,4,17.2v3.2
			c0,6.4-1.3,12.1-4,17.1c-2.6,5-6.4,8.9-11.2,11.6c-4.8,2.7-10.2,4.1-16.2,4.2H240.3z M254.5,81.9v46h6.9c5.6,0,9.8-1.8,12.7-5.4
			c2.9-3.6,4.4-8.8,4.5-15.6v-3.6c0-7-1.5-12.3-4.4-15.9c-2.9-3.6-7.2-5.4-12.7-5.4H254.5z" />
			<path class="st20"
				d="M332.1,139.3c-0.6-1.2-1.1-2.8-1.4-4.6c-3.3,3.7-7.6,5.5-12.9,5.5c-5,0-9.2-1.5-12.5-4.4
			c-3.3-2.9-4.9-6.6-4.9-11c0-5.4,2-9.6,6-12.5c4-2.9,9.8-4.4,17.5-4.4h6.3v-2.9c0-2.4-0.6-4.3-1.8-5.7c-1.2-1.4-3.1-2.1-5.8-2.1
			c-2.3,0-4.1,0.6-5.4,1.7c-1.3,1.1-2,2.6-2,4.5h-13.7c0-3,0.9-5.7,2.7-8.2c1.8-2.5,4.4-4.5,7.8-5.9c3.3-1.4,7.1-2.2,11.3-2.2
			c6.3,0,11.3,1.6,15,4.8c3.7,3.2,5.6,7.6,5.6,13.4v22.2c0,4.9,0.7,8.5,2,11v0.8H332.1z M320.8,129.8c2,0,3.9-0.5,5.6-1.4
			c1.7-0.9,3-2.1,3.8-3.6V116h-5.1c-6.9,0-10.5,2.4-10.9,7.1l0,0.8c0,1.7,0.6,3.1,1.8,4.2C317.1,129.2,318.7,129.8,320.8,129.8z" />
			<path class="st20" d="M354.3,74.8c0-2.1,0.7-3.7,2.1-5.1c1.4-1.3,3.2-2,5.6-2c2.3,0,4.2,0.7,5.6,2c1.4,1.3,2.1,3,2.1,5.1
			c0,2.1-0.7,3.8-2.1,5.1c-1.4,1.3-3.3,2-5.6,2c-2.3,0-4.2-0.7-5.6-2C355,78.6,354.3,76.9,354.3,74.8z M368.9,139.3h-13.7V88.1h13.7
			V139.3z" />
			<path class="st20" d="M392.8,88.1l0.4,5.9c3.7-4.6,8.6-6.9,14.7-6.9c5.4,0,9.5,1.6,12.1,4.8s4,8,4.1,14.3v33.1h-13.7v-32.8
			c0-2.9-0.6-5-1.9-6.3c-1.3-1.3-3.4-2-6.3-2c-3.9,0-6.7,1.6-8.7,4.9v36.1h-13.7V88.1H392.8z" />
			<path class="st20" d="M458.1,140.2c-7.5,0-13.6-2.3-18.4-6.9c-4.7-4.6-7.1-10.8-7.1-18.4v-1.3c0-5.1,1-9.7,3-13.8s4.8-7.2,8.5-9.4
			c3.6-2.2,7.8-3.3,12.5-3.3c7,0,12.5,2.2,16.6,6.6c4,4.4,6,10.7,6,18.8v5.6h-32.6c0.4,3.3,1.8,6,4,8.1c2.2,2,5,3,8.5,3
			c5.3,0,9.4-1.9,12.4-5.7l6.7,7.5c-2.1,2.9-4.8,5.2-8.3,6.8S462.3,140.2,458.1,140.2z M456.5,98.1c-2.7,0-4.9,0.9-6.6,2.8
			c-1.7,1.8-2.8,4.5-3.2,7.9h19v-1.1c-0.1-3-0.9-5.4-2.5-7.1C461.7,99,459.4,98.1,456.5,98.1z" />
			<path class="st20" d="M501.4,139.3h-13.7V66.6h13.7V139.3z" />
			<path class="st20" d="M552.8,139.3h-14.2v-69h14.2V139.3z" />
			<path class="st20" d="M620.1,116.3c-0.5,7.4-3.3,13.3-8.2,17.5c-4.9,4.3-11.5,6.4-19.5,6.4c-8.8,0-15.8-3-20.9-8.9
			c-5.1-6-7.6-14.1-7.6-24.5v-4.2c0-6.6,1.2-12.5,3.5-17.5c2.3-5.1,5.7-8.9,10-11.6c4.3-2.7,9.4-4,15.1-4c8,0,14.4,2.1,19.2,6.4
			c4.9,4.3,7.7,10.2,8.4,18H606c-0.3-4.5-1.6-7.7-3.7-9.7c-2.1-2-5.4-3-9.7-3c-4.7,0-8.3,1.7-10.6,5.1c-2.4,3.4-3.6,8.7-3.6,15.8
			v5.2c0,7.5,1.1,12.9,3.4,16.3c2.3,3.4,5.8,5.2,10.7,5.2c4.4,0,7.7-1,9.8-3c2.2-2,3.4-5.1,3.7-9.3H620.1z" />
			<path class="st20" d="M686.1,106.4c0,6.8-1.2,12.7-3.6,17.9c-2.4,5.1-5.8,9.1-10.3,11.8c-4.5,2.8-9.6,4.2-15.4,4.2
			c-5.7,0-10.8-1.4-15.3-4.1c-4.5-2.7-8-6.7-10.4-11.8c-2.5-5.1-3.7-11-3.7-17.6v-3.4c0-6.8,1.2-12.8,3.7-17.9
			c2.4-5.2,5.9-9.1,10.4-11.9c4.5-2.8,9.6-4.1,15.3-4.1c5.7,0,10.9,1.4,15.3,4.1c4.5,2.8,7.9,6.7,10.4,11.9
			c2.4,5.2,3.7,11.1,3.7,17.9V106.4z M671.7,103.3c0-7.2-1.3-12.7-3.9-16.5c-2.6-3.8-6.3-5.6-11.1-5.6c-4.8,0-8.4,1.9-11,5.6
			c-2.6,3.7-3.9,9.1-3.9,16.3v3.4c0,7,1.3,12.5,3.9,16.4c2.6,3.9,6.3,5.8,11.2,5.8c4.8,0,8.4-1.9,11-5.6c2.6-3.7,3.9-9.2,3.9-16.4
			V103.3z" />
		</g>
	</g>
</svg>