<svg width="1728" height="1663" viewBox="0 0 1728 1663" fill="none" xmlns="http://www.w3.org/2000/svg">
<path d="M1728 1.00018H9.15527e-05V824H1728V1.00018Z" stroke="#B3B3B3"/>
<path d="M1611.49 56.4914H116.512V768.509H1611.49V56.4914Z" stroke="#B3B3B3"/>
<path d="M1506.07 106.698H221.927V718.302H1506.07V106.698Z" stroke="#B3B3B3"/>
<path d="M1411.75 151.619H316.246V673.381H1411.75V151.619Z" stroke="#B3B3B3"/>
<path d="M1328.53 191.256H399.468V633.744H1328.53V191.256Z" stroke="#B3B3B3"/>
<path d="M1256.41 225.608H471.594V599.392H1256.41V225.608Z" stroke="#B3B3B3"/>
<path d="M1195.38 254.674H532.624V570.326H1195.38V254.674Z" stroke="#B3B3B3"/>
<path d="M1145.44 278.456H582.557V546.544H1145.44V278.456Z" stroke="#B3B3B3"/>
<path d="M1106.61 296.954H621.394V528.046H1106.61V296.954Z" stroke="#B3B3B3"/>
<path d="M1078.86 310.166H649.135V514.834H1078.86V310.166Z" stroke="#B3B3B3"/>
<path d="M1062.22 318.093H665.78V506.907H1062.22V318.093Z" stroke="#B3B3B3"/>
<path d="M1056.67 320.736H671.328V504.265H1056.67V320.736Z" stroke="#B3B3B3"/>
<path d="M671.328 504.264L0.000118499 824" stroke="#B3B3B3"/>
<path d="M690.595 504.264L117.227 824" stroke="#B3B3B3"/>
<path d="M709.863 504.264L222.114 824" stroke="#B3B3B3"/>
<path d="M729.13 504.264L317.74 824" stroke="#B3B3B3"/>
<path d="M748.397 504.264L406.338 824" stroke="#B3B3B3"/>
<path d="M767.664 504.264L489.591 824" stroke="#B3B3B3"/>
<path d="M786.931 504.264L568.804 824" stroke="#B3B3B3"/>
<path d="M806.198 504.264L645.027 824" stroke="#B3B3B3"/>
<path d="M825.466 504.264L719.138 824" stroke="#B3B3B3"/>
<path d="M844.733 504.264L791.898 824" stroke="#B3B3B3"/>
<path d="M864 504.264V824" stroke="#B3B3B3"/>
<path d="M883.267 504.264L936.102 824" stroke="#B3B3B3"/>
<path d="M902.535 504.264L1008.86 824" stroke="#B3B3B3"/>
<path d="M921.802 504.264L1082.97 824" stroke="#B3B3B3"/>
<path d="M941.069 504.264L1159.2 824" stroke="#B3B3B3"/>
<path d="M960.336 504.264L1238.41 824" stroke="#B3B3B3"/>
<path d="M979.603 504.264L1321.66 824" stroke="#B3B3B3"/>
<path d="M998.87 504.264L1410.26 824" stroke="#B3B3B3"/>
<path d="M1018.14 504.264L1505.89 824" stroke="#B3B3B3"/>
<path d="M1037.4 504.264L1610.77 824" stroke="#B3B3B3"/>
<path d="M1056.67 504.264L1728 824" stroke="#B3B3B3"/>
<path d="M671.328 320.736L0.000118499 1.00014" stroke="#B3B3B3"/>
<path d="M671.328 329.912L0.00021836 56.8322" stroke="#B3B3B3"/>
<path d="M671.328 339.089L0.000167795 106.787" stroke="#B3B3B3"/>
<path d="M671.328 348.265L0.000175922 152.331" stroke="#B3B3B3"/>
<path d="M671.328 357.441L0.000163752 194.528" stroke="#B3B3B3"/>
<path d="M671.328 366.618L0.00015895 234.179" stroke="#B3B3B3"/>
<path d="M671.328 375.794L0.000145904 271.906" stroke="#B3B3B3"/>
<path d="M671.328 384.971L9.377e-05 308.209" stroke="#B3B3B3"/>
<path d="M671.328 394.147L0.00013409 343.506" stroke="#B3B3B3"/>
<path d="M671.328 403.324L0.000192818 378.16" stroke="#B3B3B3"/>
<path d="M671.328 412.5H0.000170767" stroke="#B3B3B3"/>
<path d="M671.328 421.677L0.000192818 446.84" stroke="#B3B3B3"/>
<path d="M671.328 430.853L0.00013409 481.494" stroke="#B3B3B3"/>
<path d="M671.328 440.029L9.377e-05 516.791" stroke="#B3B3B3"/>
<path d="M671.328 449.206L0.000145904 553.094" stroke="#B3B3B3"/>
<path d="M671.328 458.382L0.00015895 590.821" stroke="#B3B3B3"/>
<path d="M671.328 467.559L0.000163752 630.472" stroke="#B3B3B3"/>
<path d="M671.328 476.735L0.000175922 672.669" stroke="#B3B3B3"/>
<path d="M671.328 485.912L0.000167795 718.213" stroke="#B3B3B3"/>
<path d="M671.328 495.088L0.00021836 768.168" stroke="#B3B3B3"/>
<path d="M671.328 504.265L0.000118499 824" stroke="#B3B3B3"/>
<path d="M1056.67 320.735L1728 1.00002" stroke="#B3B3B3"/>
<path d="M1037.41 320.735L1610.77 1.00006" stroke="#B3B3B3"/>
<path d="M1018.14 320.735L1505.89 1.00009" stroke="#B3B3B3"/>
<path d="M998.87 320.735L1410.26 1.00008" stroke="#B3B3B3"/>
<path d="M979.603 320.735L1321.66 1.0001" stroke="#B3B3B3"/>
<path d="M960.336 320.735L1238.41 1.00004" stroke="#B3B3B3"/>
<path d="M941.069 320.735L1159.2 1.00006" stroke="#B3B3B3"/>
<path d="M921.802 320.735L1082.97 1.00007" stroke="#B3B3B3"/>
<path d="M902.535 320.735L1008.86 1.00006" stroke="#B3B3B3"/>
<path d="M883.267 320.735L936.102 1.00005" stroke="#B3B3B3"/>
<path d="M864 320.735L864 1.00008" stroke="#B3B3B3"/>
<path d="M844.733 320.735L791.898 1.00005" stroke="#B3B3B3"/>
<path d="M825.466 320.735L719.138 1.00006" stroke="#B3B3B3"/>
<path d="M806.199 320.735L645.027 1.00007" stroke="#B3B3B3"/>
<path d="M786.931 320.735L568.804 1.00006" stroke="#B3B3B3"/>
<path d="M767.664 320.735L489.591 1.00004" stroke="#B3B3B3"/>
<path d="M748.397 320.735L406.338 1.0001" stroke="#B3B3B3"/>
<path d="M729.13 320.735L317.74 1.00008" stroke="#B3B3B3"/>
<path d="M709.863 320.735L222.114 1.00009" stroke="#B3B3B3"/>
<path d="M690.595 320.736L117.227 1.00017" stroke="#B3B3B3"/>
<path d="M671.328 320.736L0.000118499 1.00011" stroke="#B3B3B3"/>
<path d="M1056.67 504.264L1728 824" stroke="#B3B3B3"/>
<path d="M1056.67 495.088L1728 768.168" stroke="#B3B3B3"/>
<path d="M1056.67 485.911L1728 718.213" stroke="#B3B3B3"/>
<path d="M1056.67 476.735L1728 672.669" stroke="#B3B3B3"/>
<path d="M1056.67 467.559L1728 630.472" stroke="#B3B3B3"/>
<path d="M1056.67 458.382L1728 590.821" stroke="#B3B3B3"/>
<path d="M1056.67 449.206L1728 553.094" stroke="#B3B3B3"/>
<path d="M1056.67 440.029L1728 516.791" stroke="#B3B3B3"/>
<path d="M1056.67 430.853L1728 481.494" stroke="#B3B3B3"/>
<path d="M1056.67 421.676L1728 446.84" stroke="#B3B3B3"/>
<path d="M1056.67 412.5L1728 412.5" stroke="#B3B3B3"/>
<path d="M1056.67 403.324L1728 378.16" stroke="#B3B3B3"/>
<path d="M1056.67 394.147L1728 343.506" stroke="#B3B3B3"/>
<path d="M1056.67 384.971L1728 308.209" stroke="#B3B3B3"/>
<path d="M1056.67 375.794L1728 271.906" stroke="#B3B3B3"/>
<path d="M1056.67 366.618L1728 234.179" stroke="#B3B3B3"/>
<path d="M1056.67 357.441L1728 194.528" stroke="#B3B3B3"/>
<path d="M1056.67 348.265L1728 152.331" stroke="#B3B3B3"/>
<path d="M1056.67 339.088L1728 106.787" stroke="#B3B3B3"/>
<path d="M1056.67 329.912L1728 56.8321" stroke="#B3B3B3"/>
<path d="M1056.67 320.735L1728 0.999992" stroke="#B3B3B3"/>
</svg>
